# xmcd
#
# Track frame offsets:
#	150
#	72882
#	104578
#	133585
#	187857
#
# Disc length: 2959 seconds
#
# Revision: 0
# Processed by: cddbd v1.5.1PL2 Copyright (c) Steve Scherf et al.
# Submitted via: audiograbber 1.83.01
#
DISCID=400b8d05
DTITLE=Allman Brother Band - Knoxville TN - 9-27-05
DYEAR=2005
DGENRE=Blues
TTITLE0=Egypt
TTITLE1=Melissa
TTITLE2=Statesboro Blues
TTITLE3=The Same Thing
TTITLE4=Dimples
EXTD=
EXTT0=
EXTT1=
EXTT2=
EXTT3=
EXTT4=
PLAYORDER=
